<svg xmlns="http://www.w3.org/2000/svg" width="38.026" height="38.039" viewBox="0 0 38.026 38.039">
  <path id="_10088-02" data-name="10088-02" d="M6.074,16.5a10.6,10.6,0,0,1,.786-2.564c.373-.8.8-1.568,1.239-2.406-.232-.223-.516-.493-.795-.769-.479-.474-.953-.952-1.429-1.429a.428.428,0,0,1-.011-.691q1.382-1.388,2.769-2.77a.432.432,0,0,1,.692.018l2.293,2.287c.449-.245.888-.5,1.339-.728a12.425,12.425,0,0,1,3.231-1.1c.3-.06.3-.065.3-.373v-3c0-.431.131-.548.565-.546,1.266,0,2.532,0,3.8,0,.349,0,.5.139.5.49q0,1.644,0,3.287c0,.1-.007.185.123.214a12.512,12.512,0,0,1,3.668,1.456c.171-.176.35-.351.513-.538.031-.035.016-.125,0-.183a6.18,6.18,0,0,1-.023-3.244A5.034,5.034,0,0,1,29.1.293a6.231,6.231,0,0,1,4.944.551.418.418,0,0,1,.008.776c-.653.387-1.317.762-1.975,1.143-.3.173-.6.342-.9.522a1.225,1.225,0,0,0-.432,1.688c.444.771.875,1.552,1.339,2.309a1.226,1.226,0,0,0,1.741.417c1.065-.613,2.135-1.218,3.185-1.854a.472.472,0,0,1,.772.392,5.968,5.968,0,0,1-.381,2.94,5.106,5.106,0,0,1-4.2,3.18,6.37,6.37,0,0,1-2.545-.172.214.214,0,0,0-.163.01c-.2.186-.4.382-.6.572a12.844,12.844,0,0,1,1.333,3.724.589.589,0,0,0,.073.008H34.94c.327,0,.471.147.471.474v3.878c0,.365-.138.507-.5.507-1.15,0-2.3,0-3.448,0-.161,0-.232.031-.267.209a12.447,12.447,0,0,1-1.7,4.225.2.2,0,0,0,.035.3c.813.8,1.619,1.614,2.427,2.422a.432.432,0,0,1,.011.705q-1.367,1.373-2.742,2.739c-.263.261-.467.25-.733-.016l-2.5-2.5a12.83,12.83,0,0,1-4.644,2.022v.947q0,1.276,0,2.552a.4.4,0,0,1-.449.459q-1.979,0-3.958,0a.4.4,0,0,1-.457-.449q0-1.634.008-3.267c0-.107-.017-.147-.136-.17a13.012,13.012,0,0,1-3.819-1.354.361.361,0,0,0-.056.026.607.607,0,0,0-.249.75A5.784,5.784,0,0,1,12,34.545a4.993,4.993,0,0,1-3.132,2.976,6.242,6.242,0,0,1-5.044-.486.447.447,0,0,1-.294-.406.469.469,0,0,1,.286-.416q1.4-.807,2.809-1.617a1.239,1.239,0,0,0,.463-1.712q-.622-1.075-1.239-2.153a1.28,1.28,0,0,0-1.946-.508C2.857,30.84,1.8,31.443.747,32.049a.422.422,0,0,1-.677-.327A5.331,5.331,0,0,1,3.6,25.735a5.926,5.926,0,0,1,3.415-.092.459.459,0,0,0,.568-.236c-.227-.469-.459-.929-.674-1.4a11.339,11.339,0,0,1-.8-2.5c-.027-.137-.078-.158-.2-.157-.973,0-1.947,0-2.92,0-.449,0-.565-.107-.566-.563q-.005-1.919,0-3.839c0-.318.148-.458.49-.459.973,0,1.946,0,2.92,0ZM32.983,1.259c-.292-.088-.524-.166-.759-.227a4.859,4.859,0,0,0-3.216.181,4.345,4.345,0,0,0-2.73,4.093,5.367,5.367,0,0,0,.29,1.946.455.455,0,0,1-.114.5c-.6.6-1.2,1.206-1.8,1.806q-2.2,2.2-4.4,4.393Q18.2,16,16.161,18.057q-2.205,2.205-4.418,4.408-2.006,2-4.007,4.01a.451.451,0,0,1-.43.123,3.031,3.031,0,0,1-.292-.087,5.1,5.1,0,0,0-3.512.163A4.25,4.25,0,0,0,.96,29.83a11.267,11.267,0,0,0-.134,1.182c.094-.045.129-.06.161-.079.877-.505,1.756-1.005,2.63-1.518a2.069,2.069,0,0,1,2.814.655q.743,1.217,1.422,2.473a2.06,2.06,0,0,1-.743,2.746c-.382.234-.778.444-1.166.669-.351.2-.7.408-1.062.622a.563.563,0,0,0,.069.041,5.3,5.3,0,0,0,3.437.171,4.249,4.249,0,0,0,3.022-3.159,5.251,5.251,0,0,0-.141-3.014.479.479,0,0,1,.13-.536q.82-.81,1.631-1.627L16.9,24.57q2.31-2.307,4.622-4.607c1.293-1.293,2.582-2.592,3.874-3.885q2.336-2.336,4.678-4.667a.467.467,0,0,1,.517-.134,5.47,5.47,0,0,0,2.716.216,4.331,4.331,0,0,0,2.358-1.2,4.47,4.47,0,0,0,1.293-2.833c.018-.2,0-.394,0-.6-.468.271-.92.534-1.372.8s-.911.515-1.36.784a2.091,2.091,0,0,1-2.89-.74c-.136-.235-.274-.469-.408-.705-.333-.584-.686-1.158-.992-1.756a2.007,2.007,0,0,1,.584-2.507c.431-.315.914-.559,1.375-.833C32.241,1.689,32.586,1.491,32.983,1.259ZM31.116,28.892a.676.676,0,0,0-.058-.082q-1.2-1.206-2.407-2.409a.5.5,0,0,1-.082-.749c.346-.583.694-1.168.993-1.776a11.409,11.409,0,0,0,.9-2.9c.072-.368.181-.449.555-.449h3.549V17.337H30.975c-.321,0-.444-.1-.5-.413a12.574,12.574,0,0,0-.727-2.517c-.141-.334-.3-.661-.457-1.015-.847.848-1.658,1.671-2.483,2.479a.384.384,0,0,0-.094.458,11.3,11.3,0,0,1,.332,1.4,8.175,8.175,0,0,1-.36,3.92,8.421,8.421,0,0,1-2.395,3.609,8.317,8.317,0,0,1-3.193,1.789,7.714,7.714,0,0,1-3.366.295c-.6-.087-1.178-.255-1.766-.39-.1-.023-.179-.062-.275.034-.694.7-1.393,1.4-2.09,2.092-.151.151-.3.305-.457.469a11.983,11.983,0,0,0,3.72,1.22c.354.057.464.18.464.543v3.264H20.51V31.209c0-.332.127-.443.443-.531.744-.2,1.5-.4,2.219-.664a10.753,10.753,0,0,0,2.588-1.448.428.428,0,0,1,.562.018q.817.812,1.629,1.629l.914.918ZM10.768,22.219c-.176-.719-.393-1.382-.5-2.063a8.2,8.2,0,0,1,.858-5.12,8.5,8.5,0,0,1,7.551-4.591,8.287,8.287,0,0,1,3.064.588.235.235,0,0,0,.3-.063c.254-.265.515-.524.776-.782.564-.561,1.128-1.12,1.7-1.686a1.026,1.026,0,0,0-.1-.073,11.833,11.833,0,0,0-3.471-1.261.454.454,0,0,1-.438-.531q0-1.041,0-2.083V3.274H17.333c0,.071-.008.131-.009.191V6.443c0,.494-.049.555-.528.649-.06.012-.119.029-.179.041A11.165,11.165,0,0,0,13.31,8.223c-.481.252-.943.538-1.408.82a.472.472,0,0,1-.648-.03q-.7-.7-1.4-1.4c-.289-.294-.572-.6-.858-.895L6.725,8.979c.034.041.058.075.086.1L8.932,11.2a.455.455,0,0,1,.041.684,12.211,12.211,0,0,0-1.462,2.675,12.351,12.351,0,0,0-.644,2.267c-.082.439-.179.51-.633.51H3.261v3.185h3.03c.383,0,.5.085.567.465a11.79,11.79,0,0,0,.875,2.833c.147.324.311.64.466.957ZM21.223,11.752a7.569,7.569,0,0,0-8.353,2.2,7.484,7.484,0,0,0-1.376,7.528l9.727-9.729ZM16.494,26.235a7.609,7.609,0,0,0,9.469-9.469Z" transform="translate(0.11 0.092)" stroke="#000" stroke-width="0.2"/>
</svg>
