<svg xmlns="http://www.w3.org/2000/svg" width="40.51" height="31.275" viewBox="0 0 40.51 31.275">
  <g id="_10088-11" data-name="10088-11" transform="translate(-0.001 0.002)">
    <path id="Path_81" data-name="Path 81" d="M23.657,30.3H39.571V3.132c.02-.29.16-.489.463-.489a.46.46,0,0,1,.477.518V30.475c0,.71-.087.8-.795.8H.72c-.582,0-.705-.122-.705-.718q0-13.595,0-27.19c0-.122-.039-.291.023-.367.122-.147.3-.324.461-.336.136-.011.326.172.419.318a.9.9,0,0,1,.046.451V30.3h15.9l.01-.1c-.836-.09-1.671-.205-2.51-.269-2.689-.207-5.393-.358-8.084-.611A25.749,25.749,0,0,1,3.24,28.71c-.452-.1-.611-.377-.611-.856q.018-13.3.007-26.6c0-.253-.012-.506,0-.757A.469.469,0,0,1,3.3.038c2.427.835,4.963.817,7.471,1a49.528,49.528,0,0,1,7.261.758c.691.154,1.354.434,2.033.647a.542.542,0,0,0,.35.018,14.143,14.143,0,0,1,4.89-1.088c2.651-.221,5.308-.378,7.96-.584A14.283,14.283,0,0,0,37.178.051c.413-.154.685.053.709.5v18.2a5.472,5.472,0,0,1-.8,3.154c-.54.824-.856,1.792-1.384,2.629a13.723,13.723,0,0,1-3.64,3.565c-.562.417-1.1.856-1.692,1.241a2.243,2.243,0,0,1-.958.355c-1.824.185-3.653.33-5.479.489-.094.009-.187.032-.28.048ZM36.918,1.26c-1.345.177-2.615.395-3.895.5-2.705.229-5.417.383-8.123.6a13.1,13.1,0,0,0-3.725.791.593.593,0,0,0-.444.644q.018,12.816.01,25.628v.489a20.618,20.618,0,0,1,2.323-.549c2-.244,4.007-.424,6.016-.589a1.245,1.245,0,0,0,1.12-.674,3.806,3.806,0,0,0,.473-1.244c.149-1.43.244-2.868.317-4.3.042-.771.16-.856.9-.718a12.218,12.218,0,0,0,2.445.265,2.449,2.449,0,0,0,2.567-2.659V1.26ZM19.783,29.96V17.98c0-4.706-.007-9.413.011-14.12a.636.636,0,0,0-.5-.727A10.416,10.416,0,0,0,17.758,2.7c-2.167-.254-4.338-.473-6.511-.678-1.993-.191-3.99-.328-5.981-.517-.546-.053-1.083-.2-1.664-.314V1.78q0,12.755-.012,25.508c0,.468.154.628.571.725a38.51,38.51,0,0,0,5.961.68C13.34,28.92,16.59,28.905,19.783,29.96Zm11.931-2.812a11.928,11.928,0,0,0,3.865-4.286,7.405,7.405,0,0,1-3.565.016c-.1,1.431-.2,2.83-.3,4.269Z" transform="translate(0 0)"/>
    <path id="Path_82" data-name="Path 82" d="M195.451,141.043l-3.972.275c-1.534.105-3.07.2-4.6.323-.7.056-1.389.158-2.078.262-.1.015-.244.161-.244.244-.015,2-.011,4-.011,6.053.321-.039.611-.081.89-.106q2.259-.2,4.523-.391c.344-.029.627.049.685.441.044.3-.2.48-.621.523q-2.9.29-5.8.59c-.4.042-.62-.122-.62-.534,0-2.365.01-4.732.007-7.1a.508.508,0,0,1,.521-.573c2.294-.222,4.589-.45,6.885-.659,1.574-.144,3.151-.258,4.727-.395.449-.039.656.122.661.578.006.7-.006,1.4,0,2.1,0,.325-.105.572-.455.578-.375,0-.489-.252-.489-.592C195.456,142.139,195.451,141.611,195.451,141.043Z" transform="translate(-161.155 -122.882)"/>
    <path id="Path_83" data-name="Path 83" d="M195.9,58.53c.133.164.334.309.384.489.077.288-.122.489-.411.515-1.072.111-2.144.22-3.219.312-2.7.24-5.41.462-8.112.7-.138.011-.274.055-.413.076-.3.044-.54-.04-.611-.367a.451.451,0,0,1,.416-.572c.62-.111,1.241-.227,1.868-.28,1.826-.156,3.657-.28,5.485-.422,1.424-.11,2.847-.229,4.27-.344.084-.007.167-.017.251-.027Z" transform="translate(-161.067 -51.377)"/>
    <path id="Path_84" data-name="Path 84" d="M183.929,115.249c-.143-.158-.358-.293-.41-.477a.414.414,0,0,1,.394-.533c1.011-.142,2.019-.323,3.036-.4,2.429-.2,4.86-.341,7.291-.512.419-.029.837-.076,1.253-.131.5-.067.751.039.8.367s-.164.537-.7.579c-1.773.144-3.545.262-5.318.419-2.021.18-4.034.39-6.057.588-.07.007-.139.02-.208.029Z" transform="translate(-161.069 -99.34)"/>
    <path id="Path_85" data-name="Path 85" d="M183.942,34.266c-.132-.166-.331-.315-.379-.5-.076-.29.122-.479.413-.518,1.121-.153,2.242-.336,3.369-.43,2.8-.236,5.6-.429,8.408-.641.3-.023.54.062.581.395s-.154.523-.489.55c-1.686.141-3.373.265-5.058.418-2.2.2-4.4.421-6.594.633a.964.964,0,0,0-.166.028Z" transform="translate(-161.109 -28.24)"/>
    <path id="Path_86" data-name="Path 86" d="M195.772,86.445c.3-.088.528.015.565.347.038.356-.181.511-.5.539l-4.346.367q-3.633.326-7.264.67c-.323.031-.611.016-.671-.373s.2-.537.517-.575c1.467-.175,2.94-.377,4.417-.489C190.915,86.738,193.344,86.608,195.772,86.445Z" transform="translate(-161.11 -75.852)"/>
    <path id="Path_87" data-name="Path 87" d="M56.02,38.742V43.49c0,.567-.161.675-.72.623-2.577-.244-5.155-.466-7.733-.694q-1.885-.165-3.771-.325a.563.563,0,0,1-.586-.654c.01-3.193,0-6.386.009-9.579,0-.523.175-.647.7-.611,2.33.181,4.664.328,6.992.527,1.519.131,3.032.333,4.547.5.414.044.571.264.568.674-.011,1.6,0,3.193,0,4.789Zm-.941,4.331V34.445c0-.252-.134-.3-.335-.324-1.071-.115-2.139-.259-3.213-.342-2.323-.182-4.66-.334-6.991-.5-.122-.007-.235,0-.334,0a.747.747,0,0,0-.042.134q0,4.241-.011,8.481c0,.252.122.3.334.313.962.073,1.923.166,2.886.237,1.956.143,3.912.271,5.86.418.6.044,1.2.132,1.843.207Z" transform="translate(-37.927 -28.304)"/>
    <path id="Path_88" data-name="Path 88" d="M43.807,199.634c1.618.116,3.237.219,4.853.351,2.1.172,4.206.367,6.308.557a5.981,5.981,0,0,1,.621.1c.31.061.531.22.468.571s-.314.417-.634.379c-1.484-.175-2.967-.374-4.456-.5-1.979-.167-3.963-.271-5.943-.412-.445-.032-.889-.094-1.332-.156a.44.44,0,0,1-.416-.528A.4.4,0,0,1,43.807,199.634Z" transform="translate(-37.977 -175.219)"/>
    <path id="Path_89" data-name="Path 89" d="M56.1,173.779c0,.451-.235.677-.555.619-3.687-.678-7.443-.57-11.153-.989a6.438,6.438,0,0,1-.705-.1.443.443,0,0,1-.367-.564.437.437,0,0,1,.524-.367q5.392.445,10.785.9a4.949,4.949,0,0,1,1.029.182A1.505,1.505,0,0,1,56.1,173.779Z" transform="translate(-38.009 -151.307)"/>
    <path id="Path_90" data-name="Path 90" d="M55.68,147.47c-.845-.111-1.534-.233-2.228-.29-1.977-.159-3.956-.286-5.934-.436-1.222-.094-2.445-.2-3.675-.319-.416-.039-.622-.26-.557-.577.078-.377.351-.4.678-.374,2.078.166,4.156.3,6.234.482,1.726.15,3.448.347,5.171.524a1.654,1.654,0,0,1,.288.059c.292.079.5.268.392.572C55.983,147.287,55.755,147.4,55.68,147.47Z" transform="translate(-37.983 -127.685)"/>
  </g>
</svg>
