<svg id="_10088-06" data-name="10088-06" xmlns="http://www.w3.org/2000/svg" width="37.871" height="37.916" viewBox="0 0 37.871 37.916">
  <path id="Path_25" data-name="Path 25" d="M33.908,9.006h3.035c.111,0,.222-.006.333,0,.468.011.594.135.6.6V26.01a2.445,2.445,0,0,1-2.706,2.7H29.9v8.429c0,.67-.1.774-.768.774H.742c-.649,0-.742-.093-.742-.749Q0,20.8,0,4.437C0,3.188,0,1.939,0,.69,0,.107.1,0,.675,0H31.229A2.558,2.558,0,0,1,33.9,2.677c.007,1.943,0,3.886,0,5.829ZM.932.916V36.975H29v-.569Q29,20.4,29.007,4.4c0-1.166-.292-2.383.51-3.48ZM33.508,27.79a3.716,3.716,0,0,1-.558-2.238q.01-11.195,0-22.389c0-.277.015-.557-.012-.833a1.47,1.47,0,0,0-1-1.306A1.581,1.581,0,0,0,29.881,2.7c.029,8.212.017,16.425.018,24.637,0,.146.013.291.021.447Zm.4-17.87V26.11c0,.1,0,.194.007.291a1.526,1.526,0,0,0,2.986.3,2.765,2.765,0,0,0,.069-.7q.008-7.552.007-15.1V9.919Z" transform="translate(0)"/>
  <path id="Path_26" data-name="Path 26" d="M208.092,221.8a4.573,4.573,0,1,1,3.244-1.324A4.57,4.57,0,0,1,208.092,221.8Zm3.609-4.109h-.571c-.943,0-1.885.005-2.827,0-.485,0-.621-.138-.623-.615v-2.994c0-.146-.012-.291-.02-.435a3.61,3.61,0,0,0-3.2,3.623A3.68,3.68,0,0,0,208.1,220.9,3.57,3.57,0,0,0,211.7,217.693Zm0-.925a3.426,3.426,0,0,0-3.088-3.095v3.1Z" transform="translate(-186.599 -194.951)"/>
  <path id="Path_27" data-name="Path 27" d="M69,158.235H59.1c-.138,0-.311.045-.408-.02-.152-.1-.349-.283-.348-.431s.2-.315.347-.434c.068-.055.215-.017.326-.017h20.06c.111,0,.26-.036.324.021.141.124.317.293.326.452.007.132-.182.311-.326.406-.1.064-.269.023-.407.023Z" transform="translate(-53.482 -144.219)"/>
  <path id="Path_28" data-name="Path 28" d="M69,356.275h9.988c.138,0,.315-.044.407.023a.775.775,0,0,1,.333.447c.008.133-.182.306-.324.409-.083.061-.242.022-.366.023H59.015c-.112,0-.257.038-.326-.017-.147-.118-.348-.285-.35-.433s.194-.328.345-.432c.1-.066.27-.021.408-.021Z" transform="translate(-53.481 -326.592)"/>
  <path id="Path_29" data-name="Path 29" d="M65.451,87.6H59.127c-.125,0-.279.039-.368-.019-.154-.1-.381-.271-.372-.4.012-.167.2-.34.358-.462.078-.062.242-.023.366-.023H71.8c.124,0,.287-.038.366.025.152.123.344.3.354.465.007.127-.222.3-.377.4-.089.057-.243.018-.367.018Z" transform="translate(-53.524 -79.466)"/>
  <path id="Path_30" data-name="Path 30" d="M65.209,122.081h6.324c.125,0,.281-.042.367.017.153.1.359.266.365.411s-.181.333-.328.443c-.092.069-.267.032-.406.032H58.717c-.323.007-.606-.072-.607-.458s.285-.447.61-.446Q61.965,122.086,65.209,122.081Z" transform="translate(-53.271 -111.902)"/>
  <path id="Path_31" data-name="Path 31" d="M105.29,217.787v-3.715c0-.421.062-.785.452-.782s.456.367.456.787v7.484c0,.412-.052.771-.439.814-.31.034-.466-.25-.467-.819Q105.287,219.67,105.29,217.787Z" transform="translate(-96.521 -195.528)"/>
  <path id="Path_32" data-name="Path 32" d="M153.418,217.749v3.77c0,.423-.068.785-.456.78s-.453-.372-.452-.791v-7.484c0-.416.053-.771.441-.81.311-.032.465.25.466.82Q153.42,215.892,153.418,217.749Z" transform="translate(-139.809 -195.456)"/>
  <path id="Path_33" data-name="Path 33" d="M57.92,237.159v-2.908c0-.4.083-.749.436-.764.376-.012.469.343.468.773q-.007,2.934,0,5.87c0,.4-.067.744-.433.757-.392.014-.47-.347-.469-.765Z" transform="translate(-53.097 -214.043)"/>
  <path id="Path_34" data-name="Path 34" d="M129,237.168V234.26c0-.4.083-.749.434-.763.377-.011.467.343.466.773q-.007,2.934,0,5.869c0,.4-.065.745-.431.756-.392.012-.468-.345-.466-.766Q129,238.648,129,237.168Z" transform="translate(-118.257 -214.052)"/>
  <path id="Path_35" data-name="Path 35" d="M82.472,276.381v1.347c0,.355-.136.59-.416.607-.3.019-.471-.214-.476-.59-.012-.934-.01-1.867,0-2.8,0-.376.159-.62.463-.609s.434.268.434.645C82.473,275.448,82.472,275.915,82.472,276.381Z" transform="translate(-74.779 -251.489)"/>
</svg>
