<svg xmlns="http://www.w3.org/2000/svg" width="30.301" height="40.328" viewBox="0 0 30.301 40.328">
  <g id="_10088-01" data-name="10088-01" transform="translate(0.012 0.029)">
    <path id="Path_7" data-name="Path 7" d="M26.48-.028v37.1H-.006V21.9q0-7.279-.006-14.558a.877.877,0,0,1,.284-.684C2.442,4.507,4.6,2.34,6.771.185a.756.756,0,0,1,.481-.2Q16.7-.034,26.14-.028ZM25.29,35.895V1.184H6.914V7H1.19V35.895ZM5.789,2.912,2.831,5.844H5.789Z" transform="translate(0 0)" fill="#0a0b0c"/>
    <path id="Path_8" data-name="Path 8" d="M87.778,51.83V88.908H61.32v-2.15h1.152v.967H86.6V53.007H85.017V51.83Z" transform="translate(-57.49 -48.61)" fill="#0a0b0c"/>
    <path id="Path_9" data-name="Path 9" d="M88.645,214.74v1.424H71.05V214.74Z" transform="translate(-66.61 -201.313)" fill="#0a0b0c"/>
    <path id="Path_10" data-name="Path 10" d="M71.26,145.84v-1.43H88.833v1.43Z" transform="translate(-66.807 -135.39)" fill="#0a0b0c"/>
    <path id="Path_11" data-name="Path 11" d="M71.2,356.236V354.8H87.376c.376,0,.752.006,1.128,0,.192-.005.3.048.291.259-.008.385,0,.77,0,1.182Z" transform="translate(-66.751 -332.593)" fill="#0a0b0c"/>
    <path id="Path_12" data-name="Path 12" d="M88.956,425.32v1.431H71.39V425.32Z" transform="translate(-66.929 -398.699)" fill="#0a0b0c"/>
    <path id="Path_13" data-name="Path 13" d="M88.551,284.9v1.447H76.029c-1.574,0-3.148-.018-4.722-.011-.283,0-.363-.093-.35-.36.018-.351,0-.7,0-1.076Z" transform="translate(-66.522 -267.077)" fill="#0a0b0c"/>
  </g>
</svg>
