<svg xmlns="http://www.w3.org/2000/svg" width="37.804" height="37.839" viewBox="0 0 37.804 37.839">
  <path id="_10088-05" data-name="10088-05" d="M18.234,33.826v-.609q0-6.876-.005-13.75,0-5.48.011-10.951c0-.331-.058-.492-.424-.6a3.893,3.893,0,0,1-2.8-2.815.473.473,0,0,0-.551-.42c-1.59.017-3.18.014-4.769,0a.556.556,0,0,0-.551.323,7.472,7.472,0,0,1-.735.873c.756,1.442,1.522,2.907,2.291,4.37,1.218,2.318,2.407,4.654,3.679,6.942a3.313,3.313,0,0,1,.335,2.334,7.434,7.434,0,0,1-11.9,4.548A7.175,7.175,0,0,1,0,18.413a1.978,1.978,0,0,1,.281-.9Q3.221,11.9,6.177,6.3c.078-.147.151-.3.243-.475A2.1,2.1,0,0,1,5.4,4.1,2,2,0,0,1,9.111,2.989a.694.694,0,0,0,.717.4q2.283-.022,4.566,0c.347,0,.531-.063.638-.447a4.024,4.024,0,0,1,7.757.025c.091.32.218.431.55.427,1.59-.015,3.18,0,4.769-.02a.7.7,0,0,0,.507-.282,2.016,2.016,0,0,1,2.094-1.033A1.919,1.919,0,0,1,32.348,3.52a1.957,1.957,0,0,1-.776,2.15,2.032,2.032,0,0,0-.178.164L33.411,9.69c1.329,2.527,2.633,5.074,4.009,7.571a3.159,3.159,0,0,1,.314,2.191,7.42,7.42,0,0,1-14.375,1.085,8.778,8.778,0,0,1-.352-2.142,1.971,1.971,0,0,1,.314-.94Q26.295,11.772,29.286,6.1c.039-.074.072-.15.09-.188-.29-.384-.55-.75-.838-1.093a.507.507,0,0,0-.352-.12c-1.641-.008-3.282,0-4.921-.01a.39.39,0,0,0-.449.347A3.908,3.908,0,0,1,19.874,7.95c-.376.1-.3.343-.3.582q-.006,5.48,0,10.959V33.833H30.128A2.022,2.022,0,0,1,32.42,36.1v1.065a.628.628,0,0,1-.668.672c-.151.009-.3.005-.457.005H6.536c-1.021,0-1.122-.1-1.121-1.143v-.71a1.99,1.99,0,0,1,2.147-2.151c2.25-.006,4.5,0,6.748,0ZM36.066,17.561,30.408,6.805c-1.907,3.611-3.775,7.15-5.677,10.756Zm-23,0L7.4,6.8,1.739,17.564ZM1.36,18.92a6.058,6.058,0,0,0,6.571,5.4,5.944,5.944,0,0,0,5.48-5.4Zm23.017,0a6.061,6.061,0,0,0,12.056,0Zm6.686,17.566c.11-1.157-.065-1.352-1.156-1.352H7.851c-1.032,0-1.283.3-1.073,1.352ZM18.924,6.755a2.732,2.732,0,1,0-2.539-1.675A2.74,2.74,0,0,0,18.924,6.755ZM7.377,4.725a.7.7,0,0,0,.71-.69.69.69,0,0,0-1.379,0,.7.7,0,0,0,.669.69ZM30.393,3.348a.684.684,0,0,0-.677.671.7.7,0,0,0,.7.7.7.7,0,0,0,.679-.676.687.687,0,0,0-.7-.7Z" transform="translate(0.003 0)"/>
</svg>
