<svg id="_10088-10" data-name="10088-10" xmlns="http://www.w3.org/2000/svg" width="45.292" height="38.442" viewBox="0 0 45.292 38.442">
  <path id="Path_63" data-name="Path 63" d="M10.485,38.442H3.424a3.225,3.225,0,0,1-3.247-2.2A3.3,3.3,0,0,1,.008,35.23C0,24.857,0,14.6,0,3.226A3.243,3.243,0,0,1,3.294,0H34.936a3.4,3.4,0,0,1,2.242.7,3.12,3.12,0,0,1,1.237,2.49c.015,1.11.01,2.24.007,3.333v.53a.565.565,0,0,1-.561.612.576.576,0,0,1-.567-.627V3.319a2.1,2.1,0,0,0-2.172-2.174H21.435c-5.376,0-11.726,0-18.064-.012a2.24,2.24,0,0,0-1.6.644A2.27,2.27,0,0,0,1.118,3.4c.017,10.558.017,21.206,0,31.646a2.265,2.265,0,0,0,.652,1.621,2.235,2.235,0,0,0,1.6.646C9.717,37.3,16.1,37.3,21.506,37.3H35.124A2.1,2.1,0,0,0,37.3,35.126V27.7c0-.408.212-.651.566-.651h.018a.555.555,0,0,1,.54.481,1.2,1.2,0,0,1,.008.168v2.117c0,1.748,0,3.557,0,5.335a3.18,3.18,0,0,1-2.43,3.177,4.346,4.346,0,0,1-1.047.111c-3.387,0-6.786.005-9.667.005Z"/>
  <path id="Path_64" data-name="Path 64" d="M51.043,67.488c-.184,0-.372,0-.557-.009a16.284,16.284,0,0,1-3.509-32.033,17.691,17.691,0,0,1,4.69-.525,15.778,15.778,0,0,1,11.089,4.938.6.6,0,0,1,.168.709.534.534,0,0,1-.455.318.386.386,0,0,1-.092-.011,1.1,1.1,0,0,1-.476-.282,15.078,15.078,0,0,0-6.631-3.951,15.3,15.3,0,0,0-4.187-.588A15.138,15.138,0,0,0,38.341,59.393a14.946,14.946,0,0,0,9.517,6.62,15.6,15.6,0,0,0,3.225.336,15.1,15.1,0,0,0,13.1-7.539.666.666,0,0,1,.552-.372.549.549,0,0,1,.364.15.573.573,0,0,1,.071.772,15.887,15.887,0,0,1-3.646,4.322A16.109,16.109,0,0,1,51.043,67.488Z" transform="translate(-31.868 -31.985)"/>
  <path id="Path_65" data-name="Path 65" d="M349.49,123.753a8.312,8.312,0,0,1,.032-16.623,8.2,8.2,0,0,1,5.867,2.444,8.372,8.372,0,0,1,2.422,5.93,8.154,8.154,0,0,1-2.449,5.821,8.285,8.285,0,0,1-5.87,2.428Zm0-15.5a7.184,7.184,0,0,0,0,14.367h.017a7.244,7.244,0,0,0,7.18-7.094,7.155,7.155,0,0,0-7.134-7.274Z" transform="translate(-312.519 -98.124)"/>
  <path id="Path_66" data-name="Path 66" d="M226.362,177.74a.569.569,0,0,1-.351-.125,2,2,0,0,1-.2-.191l-.068-.069-1.071-1.072c-.881-.881-1.79-1.792-2.69-2.684a.832.832,0,0,1-.264-.636v-4.272c0-.184.047-.619.47-.683a.774.774,0,0,1,.105-.008.573.573,0,0,1,.562.624c.008.4.007.815.005,1.213v1.273c0,.469,0,.953.008,1.429a.891.891,0,0,0,.236.563c1.154,1.168,2.31,2.323,3.593,3.6a.6.6,0,0,1,.219.571A.561.561,0,0,1,226.362,177.74Z" transform="translate(-203.077 -153.878)"/>
  <path id="Path_67" data-name="Path 67" d="M35.412,41.733a.7.7,0,0,1-.093-.007.537.537,0,0,1-.47-.466,2.242,2.242,0,0,1-.013-.294V35.7c0-.588.168-.764.762-.765h4.452a.619.619,0,0,1,.514.247.543.543,0,0,1,.062.5.557.557,0,0,1-.593.377H35.965v5.03A.569.569,0,0,1,35.412,41.733Z" transform="translate(-31.906 -32)"/>
  <path id="Path_68" data-name="Path 68" d="M37.685,348.366H35.457c-.442,0-.657-.209-.658-.639-.005-1.689-.005-3.493,0-5.518a.561.561,0,0,1,.563-.639h.012a.57.57,0,0,1,.555.641v5.027h4.035a.705.705,0,0,1,.5.182.523.523,0,0,1,.146.381c0,.342-.261.563-.66.564Z" transform="translate(-31.87 -312.858)"/>
  <path id="Path_69" data-name="Path 69" d="M355.555,348.383h-1.967a.619.619,0,0,1-.514-.247.541.541,0,0,1-.063-.5.554.554,0,0,1,.567-.374h4.084V342.25a.585.585,0,0,1,.5-.66.6.6,0,0,1,.066,0,.547.547,0,0,1,.552.493,2.321,2.321,0,0,1,.009.259v5.279c0,.593-.168.766-.762.766Z" transform="translate(-323.305 -312.875)"/>
  <path id="Path_70" data-name="Path 70" d="M358.212,39.672a.445.445,0,0,1-.383-.185,1.013,1.013,0,0,1-.159-.5c-.017-.554-.014-1.121-.012-1.668v-1.2h-4.021c-.405,0-.66-.214-.663-.559a.515.515,0,0,1,.145-.381.731.731,0,0,1,.53-.186h4.474c.463,0,.672.2.672.65.007,1.021.007,2.134,0,3.4a.567.567,0,0,1-.373.6A.635.635,0,0,1,358.212,39.672Z" transform="translate(-323.304 -32.045)"/>
  <path id="Path_71" data-name="Path 71" d="M222.22,345.518a.388.388,0,0,1-.308-.139.84.84,0,0,1-.21-.467c-.029-.915-.021-1.827-.009-2.76a.558.558,0,0,1,.564-.6.571.571,0,0,1,.572.614v1.787c0,.324,0,.66,0,.988a.525.525,0,0,1-.35.524A.691.691,0,0,1,222.22,345.518Z" transform="translate(-203.047 -312.84)"/>
  <path id="Path_72" data-name="Path 72" d="M222.3,72.695a.533.533,0,0,1-.516-.353.817.817,0,0,1-.047-.262c0-.791-.01-1.774,0-2.716a.56.56,0,0,1,.531-.624h.036a.559.559,0,0,1,.568.608c.008.313.006.634,0,.943v.168h-.011v.708c0,.336.008.69-.009,1.03a.514.514,0,0,1-.475.491A.553.553,0,0,1,222.3,72.695Z" transform="translate(-203.098 -62.962)"/>
  <path id="Path_73" data-name="Path 73" d="M306.849,116.738a.528.528,0,0,1-.516-.336.519.519,0,0,1,.113-.617c.24-.252.491-.5.734-.741l.3-.3.263-.265c.219-.22.445-.447.672-.667a.66.66,0,0,1,.455-.2.53.53,0,0,1,.388.168.566.566,0,0,1-.043.831l-.26.262c-.541.546-1.1,1.111-1.664,1.651a1.394,1.394,0,0,1-.336.2l-.029.014Z" transform="translate(-280.532 -104.06)"/>
  <path id="Path_74" data-name="Path 74" d="M308.821,309.672a.6.6,0,0,1-.42-.18c-.633-.622-1.284-1.273-1.991-1.993a.517.517,0,0,1-.113-.632c.084-.184.219-.311.588-.327l.051.023a1.039,1.039,0,0,1,.29.168c.643.618,1.281,1.261,1.9,1.888l.061.062a.567.567,0,0,1,.024.827A.554.554,0,0,1,308.821,309.672Z" transform="translate(-280.494 -280.773)"/>
  <path id="Path_75" data-name="Path 75" d="M115.975,116.657a.6.6,0,0,1-.42-.18c-.709-.7-1.4-1.392-1.975-1.975a.53.53,0,0,1-.129-.636c.076-.18.2-.308.571-.345l.06.026a1.1,1.1,0,0,1,.305.177c.683.654,1.361,1.345,1.959,1.949a.62.62,0,0,1,.192.437.545.545,0,0,1-.168.387A.557.557,0,0,1,115.975,116.657Z" transform="translate(-103.864 -103.978)"/>
  <path id="Path_76" data-name="Path 76" d="M114,309.665c-.364-.03-.493-.156-.572-.336a.522.522,0,0,1,.118-.635c.367-.374.744-.751,1.11-1.115l.432-.431.134-.136c.112-.113.216-.219.327-.322a.593.593,0,0,1,.4-.159.557.557,0,0,1,.4.168.54.54,0,0,1,.015.771c-.712.734-1.381,1.4-2.046,2.041a.816.816,0,0,1-.259.135Z" transform="translate(-103.839 -280.763)"/>
  <path id="Path_77" data-name="Path 77" d="M70.453,223.108H69.108a.563.563,0,0,1-.608-.564.572.572,0,0,1,.611-.567h2.736a.659.659,0,0,1,.459.168.534.534,0,0,1,.158.407.554.554,0,0,1-.614.556Z" transform="translate(-62.742 -203.318)"/>
  <path id="Path_78" data-name="Path 78" d="M379.254,177.722a.5.5,0,0,1-.46-.281.876.876,0,0,1-.066-.2.119.119,0,0,0-.008-.031.616.616,0,0,1,.361-.588q1.858-1,3.711-2.006l2.354-1.273c.992-.538,2.017-1.093,3.026-1.637a.705.705,0,0,1,.336-.09.544.544,0,0,1,.545.482.574.574,0,0,1-.35.607q-1.5.812-2.993,1.621l-1.864,1.009-4.211,2.282A.812.812,0,0,1,379.254,177.722Z" transform="translate(-346.885 -157.194)"/>
  <path id="Path_79" data-name="Path 79" d="M425.666,234.093a2.034,2.034,0,1,1,.006-4.068h.011a2.038,2.038,0,0,1,2.026,2.025,2.012,2.012,0,0,1-.588,1.439,2.036,2.036,0,0,1-1.45.6Zm0-2.931a.9.9,0,0,0-.006,1.8h.01a.909.909,0,0,0,.9-.881.89.89,0,0,0-.252-.648.9.9,0,0,0-.65-.274h0Z" transform="translate(-388.025 -210.689)"/>
  <path id="Path_80" data-name="Path 80" d="M410.452,141.585a2.027,2.027,0,1,1,.01,0Zm-.006-2.936a.9.9,0,1,0,0,1.807h.03a.9.9,0,0,0,.873-.917.905.905,0,0,0-.9-.889h-.01Z" transform="translate(-374.098 -125.969)"/>
</svg>
