<svg xmlns="http://www.w3.org/2000/svg" width="31.91" height="33.275" viewBox="0 0 31.91 33.275">
  <path id="_10088-12" data-name="10088-12" d="M20.321,33.273c-3.88,0-7.826-.006-11.642-.012l-2.821,0c-.2,0-.413-.005-.615-.011s-.438-.012-.658-.012H4.32a3.942,3.942,0,0,1-2.459-.9A4.469,4.469,0,0,1,.005,28.373a8.384,8.384,0,0,1,.714-2.73A16.781,16.781,0,0,1,7,17.876a17.045,17.045,0,0,1,2.994-1.6.928.928,0,0,0,.09-.045l.045-.023.552-.286-.4-.473c-.051-.06-.1-.119-.149-.18-.114-.135-.22-.265-.34-.394a9.82,9.82,0,0,1-1.545-2.039A8.52,8.52,0,0,1,7.224,7.8,8.74,8.74,0,0,1,9.346,3.142a8.775,8.775,0,0,1,5.138-3A8.511,8.511,0,0,1,16.022,0a8.145,8.145,0,0,1,4.43,1.342A8.8,8.8,0,0,1,24.567,7.3a8.1,8.1,0,0,1-1.4,6.28,10.525,10.525,0,0,1-.923,1.107c-.14.154-.285.314-.426.475a1.024,1.024,0,0,1-.1.082c-.039.03-.079.061-.123.1l-.591.49.691.335.1.048.005,0c.059.029.11.055.167.079A16.859,16.859,0,0,1,27.7,20.225a16.667,16.667,0,0,1,4.055,7.205,4.575,4.575,0,0,1-.142,2.815,4.76,4.76,0,0,1-1.759,2.235,4.488,4.488,0,0,1-2.638.754h-.269c-.943,0-1.9.01-2.829.019s-1.854.019-2.784.02Zm-4.8-1.156H27.764a1.268,1.268,0,0,0,.394-.052,3.578,3.578,0,0,0,2.451-4.417,15.065,15.065,0,0,0-5.442-8.211,15.775,15.775,0,0,0-5.318-2.623.817.817,0,0,0-.229-.033.748.748,0,0,0-.255.045l-.033.012c-.257.093-.523.189-.785.305a.723.723,0,0,0-.5.988l.29,1.29c.5,2.229,1.017,4.535,1.537,6.825-1.225.853-2.532,1.765-4.095,2.858-1.212-.879-2.519-1.823-3.99-2.882.122-.507.238-1.02.351-1.518l.486-2.147c.339-1.495.688-3.041,1.033-4.56a.722.722,0,0,0-.367-.853l-.024-.013A2.237,2.237,0,0,0,12.23,16.8a1.367,1.367,0,0,0-.66.173l-.02.005c-.028.007-.055.014-.082.023a15.157,15.157,0,0,0-6.076,3.59,15.511,15.511,0,0,0-4.056,6.851,3.4,3.4,0,0,0,.206,2.809,3.708,3.708,0,0,0,1.73,1.616,4.213,4.213,0,0,0,1.687.248h.225c1.562,0,3.237,0,5.43,0Zm.039-14.588a.621.621,0,0,0-.708.577c-.007.036-.014.078-.026.128q-.321,1.4-.639,2.8c-.307,1.34-.621,2.725-.935,4.095a.869.869,0,0,0,.351.973l.559.394c.423.3.86.608,1.295.908a.7.7,0,0,0,.392.115.648.648,0,0,0,.37-.11c.47-.327.943-.663,1.4-.988l.5-.356a.81.81,0,0,0,.326-.9c-.4-1.725-.8-3.48-1.183-5.178l-.372-1.637c-.15-.657-.355-.817-1.048-.817h-.282Zm.079-16.3a6.994,6.994,0,0,0-5.6,2.678A7.7,7.7,0,0,0,8.4,9.739a7.5,7.5,0,0,0,2.98,5.181A7.374,7.374,0,0,0,15.3,16.33c.234.017.468.025.7.025a7.264,7.264,0,0,0,5.62-2.447,7.424,7.424,0,0,0,1.754-6.715,7.1,7.1,0,0,0-3-4.666A7.037,7.037,0,0,0,16.327,1.22q-.2,0-.4.012h-.29Z" transform="translate(-0.001)"/>
</svg>
