<svg xmlns="http://www.w3.org/2000/svg" width="1819.137" height="38.721" viewBox="0 0 1819.137 38.721">
  <g id="Group_27" data-name="Group 27" transform="translate(-46.35 -504)">
    <path id="Icon_ionic-ios-arrow-back" data-name="Icon ionic-ios-arrow-back" d="M17.924,25.549,32.575,10.91A2.767,2.767,0,1,0,28.656,7L12.057,23.59a2.762,2.762,0,0,0-.081,3.815l16.668,16.7A2.767,2.767,0,0,0,32.563,40.2Z" transform="translate(35.1 497.806)" fill="#efa110"/>
    <path id="Icon_ionic-ios-arrow-back-2" data-name="Icon ionic-ios-arrow-back" d="M26.714,25.549,12.063,10.91A2.767,2.767,0,0,1,15.982,7l16.6,16.588a2.762,2.762,0,0,1,.081,3.815l-16.668,16.7A2.767,2.767,0,0,1,12.075,40.2Z" transform="translate(1832.1 497.806)" fill="#efa110"/>
  </g>
</svg>
