<svg xmlns="http://www.w3.org/2000/svg" width="36" height="35.751" viewBox="0 0 36 35.751">
  <path id="Subtraction_1" data-name="Subtraction 1" d="M21.106,24.751H19.512c.062-.3.119-.568.179-.835a.54.54,0,0,1,.126-.207c.03-.036.06-.074.089-.116l.068.189.06.166.114-.023a.763.763,0,0,0-.175-.632l-.026-.043a.774.774,0,0,1-.153-.448c.47-3.069.968-6.256,1.48-9.472q.353-2.282.711-4.574l.271-1.738C20.113,6.2,19.135,4.824,19.5,3.137A3.559,3.559,0,0,1,23.063.411h.019A3.57,3.57,0,0,1,26.649,3.1c.376,1.7-.6,3.092-2.742,3.912l.136.877q.139.9.28,1.8c.74,4.688,1.346,8.532,1.906,12.1q.058.367.116.733c.106.669.216,1.358.315,2.037.009.057.015.12.021.192H25.148l0-.015c0-.053-.01-.107-.014-.161,0-.189.009-.38.017-.566.008-.166.016-.337.017-.505,0-.071-.048-.2-.1-.215-.28-.067-.308-.267-.335-.461,0-.021-.006-.042-.009-.062q-.664-4.226-1.323-8.452c-.065-.415-.134-.836-.2-1.244l-.076-.461-.075,0c-.561,3.523-1.177,7.38-1.939,12.137ZM23.1,1.926a1.975,1.975,0,0,0-1.871,1.153,1.7,1.7,0,0,0,.711,2.145l.08.049c.226.135.438.263.4.573,0,.037.04.078.1.13a1.267,1.267,0,0,1,.091.091l.136-.233c-.1-.029-.147-.07-.148-.115s.048-.087.13-.116a.226.226,0,0,1,.075-.011.735.735,0,0,1,.272.072.25.25,0,0,1,.106.123c.078-.044.147-.087.215-.129a1.958,1.958,0,0,1,.374-.2,1.862,1.862,0,0,0,1.308-1.879,1.93,1.93,0,0,0-1.694-1.639A2.512,2.512,0,0,0,23.1,1.926ZM34.31,18.5h0l-1.155-1.025,2.123-2.152.155.243.019.029.008-.038c0-.021.008-.039.012-.057.024-.091.042-.187.06-.281a1.5,1.5,0,0,1,.205-.611c5.621-7.771,4.7-17.533-2.286-24.291l-.194-.191-.078-.078,1.166-.993A19.39,19.39,0,0,1,41,3.459,19.784,19.784,0,0,1,34.311,18.5Zm-22.617-.01h0a19.832,19.832,0,0,1-5.017-6.83A19.4,19.4,0,0,1,5,3.751,19.411,19.411,0,0,1,6.671-4.162,19.846,19.846,0,0,1,11.688-11l1.117,1.036-.321.328-.013.013c-.287.291-.583.593-.87.908a18.087,18.087,0,0,0-1.384,23.262,1,1,0,0,1,.138.353c.012.047.024.094.038.14.04.129.079.27.117.406l.034.123.105-.023v-.333l2.167,2.255-1.123,1.02ZM31.336,13.5h0l-1.121-1.07a11.63,11.63,0,0,0-.028-17.41l.17-.158c.125-.116.254-.235.377-.358s.26-.268.386-.4l.141-.149a12.867,12.867,0,0,1,4.492,9.547,13.1,13.1,0,0,1-4.414,10ZM14.613,13.44h0A12.919,12.919,0,0,1,14.636-5.99l1.133,1.048a11.568,11.568,0,0,0-.011,17.369l-1.143,1.012ZM28.39,8.461h0L27.3,7.4c2.2-2.783,2.193-4.366-.025-7.366l1.119-1a6.058,6.058,0,0,1,2.147,4.58,6.315,6.315,0,0,1-2.146,4.84ZM17.583,8.4h0a5.858,5.858,0,0,1-2.129-4.439A6.162,6.162,0,0,1,17.6-.967L18.728.059a4.96,4.96,0,0,0,.02,7.385L17.584,8.4Z" transform="translate(-5 11)"/>
</svg>
