<svg xmlns="http://www.w3.org/2000/svg" width="20.787" height="18" viewBox="0 0 20.787 18">
  <path id="twitter_white" d="M769.623,22.937a8.09,8.09,0,0,1-2.451.7,4.494,4.494,0,0,0,1.873-2.5,8.072,8.072,0,0,1-2.7,1.1,4.134,4.134,0,0,0-3.113-1.434,4.407,4.407,0,0,0-4.261,4.543,5.444,5.444,0,0,0,.106,1.04,11.878,11.878,0,0,1-8.786-4.754,4.743,4.743,0,0,0-.58,2.293,4.624,4.624,0,0,0,1.9,3.782,4.1,4.1,0,0,1-1.926-.576v.056a4.48,4.48,0,0,0,3.417,4.458,4.248,4.248,0,0,1-1.121.155,5.135,5.135,0,0,1-.8-.07,4.312,4.312,0,0,0,3.984,3.15,8.2,8.2,0,0,1-5.29,1.941,8.393,8.393,0,0,1-1.029-.056,11.507,11.507,0,0,0,6.543,2.039c7.836,0,12.123-6.918,12.123-12.923,0-.2,0-.393-.013-.59a9.455,9.455,0,0,0,2.134-2.348Z" transform="translate(-748.837 -20.799)" fill="#fff"/>
</svg>
